<svg xmlns="http://www.w3.org/2000/svg" viewBox="0 0 100 116" width="100" height="116">
  <defs>
    <linearGradient id="banner" x1="0" y1="0" x2="0" y2="1">
      <stop offset="0%" stop-color="#a56bf7"/>
      <stop offset="100%" stop-color="#7b2ff0"/>
    </linearGradient>
  </defs>
  <path d="M8 6 a6 6 0 0 1 6 -6 h72 a6 6 0 0 1 6 6 v78 L50 112 L8 84 Z" fill="#5a1cb8" opacity="0.55" transform="translate(2,4)"/>
  <path d="M8 6 a6 6 0 0 1 6 -6 h72 a6 6 0 0 1 6 6 v78 L50 112 L8 84 Z" fill="url(#banner)"/>
  <circle cx="18" cy="12" r="4.5" fill="#e8c96b"/>
  <circle cx="82" cy="12" r="4.5" fill="#e8c96b"/>
  <g fill="none" stroke="#e8c96b" stroke-width="3" stroke-linecap="round">
    <path d="M50 20 v10"/>
    <path d="M50 62 v10"/>
    <path d="M22 42 h10"/>
    <path d="M68 42 h10"/>
  </g>
  <circle cx="50" cy="42" r="17" fill="none" stroke="#e8c96b" stroke-width="3"/>
  <path d="M33 42 C40 32 60 32 67 42 C60 52 40 52 33 42 Z" fill="#e8c96b"/>
  <circle cx="50" cy="42" r="5" fill="#7b2ff0"/>
  <path d="M50 27 l2.4 5.6 5.6 2.4 -5.6 2.4 -2.4 5.6 -2.4 -5.6 -5.6 -2.4 5.6 -2.4 Z" fill="#fff4d9"/>
</svg>
